<svg width="82" height="23" viewBox="0 0 82 23" fill="none" xmlns="http://www.w3.org/2000/svg">
<path d="M39.7352 4.25989C39.6952 4.43989 39.6552 4.63989 39.6552 4.97989C39.6552 7.61989 41.2752 8.93989 42.5152 8.93989C43.8152 8.93989 44.5552 8.49989 45.2952 7.49989C45.3552 7.41989 45.4352 7.39989 45.4952 7.39989C45.5552 7.39989 45.6152 7.43989 45.6752 7.47989C45.7552 7.53989 45.8352 7.61989 45.8352 7.67989C45.8352 7.71989 45.7952 7.79989 45.7352 7.89989C44.8152 9.31989 43.6952 9.87989 42.0352 9.87989C39.2752 9.87989 37.4152 7.83989 37.4152 5.07989C37.4152 2.37989 39.3352 0.139893 42.0552 0.139893C44.6952 0.139893 45.8952 2.45989 45.9552 3.85989C45.9552 4.01989 45.9552 4.05989 45.8552 4.19989C45.7552 4.31989 45.6752 4.29989 45.5552 4.29989C43.5352 4.23989 41.5152 4.21989 39.7352 4.25989ZM39.8352 3.53989C41.2352 3.57989 42.1752 3.57989 43.5752 3.47989C43.7352 3.45989 43.7552 3.33989 43.7552 3.15989C43.6952 2.03989 43.2152 0.739893 42.0552 0.739893C40.9752 0.739893 40.1352 1.89989 39.8352 3.53989Z" fill="#55A500"/>
<path d="M29.9832 1.56012L29.4832 1.60012C29.2632 1.62012 29.2232 1.60012 29.2032 1.38012C29.1832 1.16012 29.2232 1.12012 29.4432 1.08012C30.2232 0.920117 31.7032 0.520116 32.6432 0.180117C32.7832 0.180117 32.9032 0.260117 32.9032 0.360117C32.8832 0.920117 32.8432 1.52012 32.8432 2.32012C33.4432 1.24012 34.2832 0.120117 35.4232 0.120117C36.1032 0.120117 36.5232 0.380117 36.5232 0.740117C36.5232 1.54012 35.9232 2.24012 35.4432 2.24012C35.0032 2.24012 34.7232 1.80012 34.3232 1.80012C34.0832 1.80012 33.8032 1.90012 33.4032 2.40012C33.0232 2.86012 32.8432 3.40012 32.8432 4.16012V6.60012C32.8432 7.80012 32.8432 8.44012 32.9832 8.72012C33.1432 9.04012 33.4632 9.04012 34.1632 9.10012C34.2832 9.10012 34.3032 9.14012 34.3032 9.36012C34.3032 9.54012 34.2632 9.56012 34.1632 9.56012C33.4032 9.54012 32.5632 9.50012 31.9032 9.50012C31.2232 9.50012 30.3032 9.54012 29.5632 9.56012C29.4432 9.56012 29.4032 9.54012 29.4032 9.36012C29.4032 9.14012 29.4432 9.12012 29.5632 9.10012C30.1632 9.04012 30.4832 9.04012 30.6232 8.72012C30.8032 8.38012 30.8232 7.76012 30.8232 6.60012V3.64012C30.8232 2.92012 30.7832 2.38012 30.6632 2.00012C30.5632 1.64012 30.3232 1.54012 29.9832 1.56012Z" fill="#55A500"/>
<path d="M23.2666 0.139893C25.9866 0.139893 27.9466 2.25989 27.9466 5.01989C27.9466 7.69989 26.0866 9.87989 23.2666 9.87989C20.5066 9.87989 18.6066 7.77989 18.6066 5.05989C18.6066 2.37989 20.5066 0.139893 23.2666 0.139893ZM23.2666 0.739893C21.7266 0.739893 20.9466 2.61989 20.9466 5.01989C20.9466 7.51989 21.6866 9.27989 23.2666 9.27989C24.8066 9.27989 25.6066 7.37989 25.6066 5.01989C25.6066 2.47989 24.8666 0.739893 23.2666 0.739893Z" fill="#55A500"/>
<path d="M1.62242 1.55989L1.14242 1.59989C0.942421 1.61989 0.902421 1.59989 0.882421 1.37989C0.862421 1.13989 0.902421 1.11989 1.10242 1.07989C1.92242 0.899893 3.32242 0.519892 4.30242 0.199893C4.42242 0.199893 4.52242 0.279893 4.52242 0.359893C4.50242 0.939893 4.48242 1.53989 4.48242 2.03989C5.12242 0.819892 6.26242 0.139893 7.30242 0.139893C8.44242 0.139893 9.70242 0.639892 10.1624 2.11989C10.9024 0.839892 11.9024 0.139893 13.2824 0.139893C13.9024 0.139893 16.1224 0.459893 16.1224 2.99989C16.1224 3.73989 16.1024 4.73989 16.1024 5.21989V6.59989C16.1024 7.79989 16.1024 8.41989 16.2424 8.71989C16.4024 9.01989 16.8224 9.03989 17.3624 9.09989C17.4824 9.11989 17.5224 9.13989 17.5224 9.31989C17.5224 9.51989 17.5024 9.55989 17.3624 9.55989C16.6624 9.55989 15.8424 9.49989 15.1624 9.49989C14.4624 9.49989 13.6224 9.53989 12.8424 9.55989C12.6824 9.55989 12.6624 9.51989 12.6624 9.31989C12.6624 9.11989 12.7024 9.09989 12.8424 9.09989C13.4024 9.03989 13.7224 9.03989 13.8824 8.71989C14.0424 8.39989 14.0424 7.75989 14.0424 6.59989V3.87989C14.0424 3.29989 14.0624 2.77989 13.8224 2.15989C13.6024 1.55989 13.1824 1.15989 12.4224 1.15989C11.6624 1.15989 11.0824 1.65989 10.7024 2.29989C10.3424 2.87989 10.2824 3.23989 10.2824 3.85989V6.59989C10.2824 7.79989 10.2824 8.41989 10.4224 8.71989C10.5624 9.01989 10.9624 9.03989 11.5624 9.09989C11.6824 9.11989 11.7024 9.15989 11.7024 9.33989C11.7024 9.51989 11.6824 9.55989 11.5424 9.55989C10.7824 9.53989 9.98242 9.49989 9.34242 9.49989C8.62242 9.49989 7.80242 9.53989 7.06242 9.55989C6.90242 9.55989 6.88242 9.51989 6.88242 9.31989C6.88242 9.13989 6.92242 9.09989 7.06242 9.09989C7.60242 9.05989 7.92242 9.03989 8.08242 8.71989C8.24242 8.39989 8.24242 7.75989 8.24242 6.59989V3.87989C8.24242 3.29989 8.28242 2.77989 8.02242 2.15989C7.78242 1.53989 7.34242 1.15989 6.60242 1.15989C5.86242 1.15989 5.30242 1.65989 4.92242 2.29989C4.56242 2.89989 4.48242 3.25989 4.48242 3.89989V6.59989C4.48242 7.79989 4.46242 8.41989 4.60242 8.71989C4.74242 9.03989 5.16242 9.03989 5.72242 9.09989C5.84242 9.11989 5.88242 9.15989 5.88242 9.35989C5.88242 9.53989 5.84242 9.55989 5.72242 9.55989C5.02242 9.53989 4.18242 9.49989 3.50242 9.49989C2.80242 9.49989 2.00242 9.53989 1.26242 9.55989C1.12242 9.55989 1.08242 9.51989 1.08242 9.33989C1.08242 9.15989 1.12242 9.11989 1.26242 9.09989C1.82242 9.03989 2.14242 9.03989 2.32242 8.71989C2.50242 8.39989 2.46242 7.75989 2.46242 6.59989V3.63989C2.46242 2.91989 2.46242 2.33989 2.32242 1.97989C2.20242 1.63989 2.00242 1.51989 1.62242 1.55989Z" fill="#55A500"/>
<path d="M0 15.1948H80L69.551 5V23" stroke="#55A500"/>
</svg>
